0
SECTION
2
HEADER
9
$INSUNITS
70
4
9
$ACADVER
1
AC1014
9
$HANDSEED
5
FFFF
0
ENDSEC
0
SECTION
2
TABLES
0
TABLE
2
VPORT
5
8
100
AcDbSymbolTable
0
ENDTAB
0
TABLE
2
LTYPE
5
5
100
AcDbSymbolTable
0
LTYPE
5
14
100
AcDbSymbolTableRecord
100
AcDbLinetypeTableRecord
2
BYBLOCK
70
0
0
LTYPE
5
15
100
AcDbSymbolTableRecord
100
AcDbLinetypeTableRecord
2
BYLAYER
70
0
0
ENDTAB
0
TABLE
2
LAYER
5
2
100
AcDbSymbolTable
70
2
0
LAYER
5
50
100
AcDbSymbolTableRecord
100
AcDbLayerTableRecord
2
0
70
0
6
CONTINUOUS
0
ENDTAB
0
TABLE
2
STYLE
5
3
100
AcDbSymbolTable
70
1
0
STYLE
5
11
100
AcDbSymbolTableRecord
100
AcDbTextStyleTableRecord
2
STANDARD
70
0
0
ENDTAB
0
TABLE
2
VIEW
5
6
100
AcDbSymbolTable
70
0
0
ENDTAB
0
TABLE
2
UCS
5
7
100
AcDbSymbolTable
70
0
0
ENDTAB
0
TABLE
2
APPID
5
9
100
AcDbSymbolTable
70
2
0
APPID
5
12
100
AcDbSymbolTableRecord
100
AcDbRegAppTableRecord
2
ACAD
70
0
0
ENDTAB
0
TABLE
2
DIMSTYLE
5
A
100
AcDbSymbolTable
70
1
0
ENDTAB
0
TABLE
2
BLOCK_RECORD
5
1
100
AcDbSymbolTable
70
1
0
BLOCK_RECORD
5
1F
100
AcDbSymbolTableRecord
100
AcDbBlockTableRecord
2
*MODEL_SPACE
0
BLOCK_RECORD
5
1B
100
AcDbSymbolTableRecord
100
AcDbBlockTableRecord
2
*PAPER_SPACE
0
ENDTAB
0
ENDSEC
0
SECTION
2
BLOCKS
0
BLOCK
5
20
100
AcDbEntity
100
AcDbBlockBegin
2
*MODEL_SPACE
0
ENDBLK
5
21
100
AcDbEntity
100
AcDbBlockEnd
0
BLOCK
5
1C
100
AcDbEntity
100
AcDbBlockBegin
2
*PAPER_SPACE
0
ENDBLK
5
1D
100
AcDbEntity
100
AcDbBlockEnd
0
ENDSEC
0
SECTION
2
ENTITIES
0
LWPOLYLINE
5
100
100
AcDbEntity
8
0
100
AcDbPolyline
90
4
70
1
43
0.0
10
17.750000000000007
20
16.699999999999992
10
17.75
20
10.999999999999993
10
28.250000000000007
20
11
10
28.250000000000007
20
16.70000000000001
0
LINE
5
101
100
AcDbEntity
8
0
100
AcDbLine
10
14.500000000000011
20
-14.304951684997057
30
0
11
14.50000000000002
21
-31.30495168499705
31
0
0
ARC
5
102
100
AcDbEntity
8
0
100
AcDbCircle
10
0
20
0
30
0
40
34.500000000000007
210
-0
220
0
230
1
100
AcDbArc
50
-65.147111398393704
51
61.899830375864866
0
LINE
5
103
100
AcDbEntity
8
0
100
AcDbLine
10
16.249999999999996
20
30.433328769623618
30
0
11
16.249999999999996
21
-5.8666712303763902
31
0
0
LINE
5
104
100
AcDbEntity
8
0
100
AcDbLine
10
16.249999999999996
20
-5.8666712303763902
30
0
11
-1.7500000000000027
21
-5.866671230376391
31
0
0
LINE
5
105
100
AcDbEntity
8
0
100
AcDbLine
10
-1.7500000000000027
20
-5.866671230376391
30
0
11
-1.7500000000000022
21
30.433328769623607
31
0
0
LINE
5
106
100
AcDbEntity
8
0
100
AcDbLine
10
-1.7500000000000022
20
30.433328769623607
30
0
11
16.249999999999996
21
30.433328769623618
31
0
0
ARC
5
107
100
AcDbEntity
8
0
100
AcDbCircle
10
0
20
0
30
0
40
34.500000000000007
210
0
220
-0
230
1
100
AcDbArc
50
61.899830375864866
51
110.09396666627786
0
LINE
5
108
100
AcDbEntity
8
0
100
AcDbLine
10
-11.852847759083037
20
32.399999999999991
30
0
11
-3.5528477590830843
21
32.400000000000034
31
0
0
LINE
5
109
100
AcDbEntity
8
0
100
AcDbLine
10
-3.5528477590830843
20
32.400000000000034
30
0
11
-3.5528477590830896
21
17.400000000000006
31
0
0
LINE
5
110
100
AcDbEntity
8
0
100
AcDbLine
10
-3.5528477590830896
20
17.400000000000006
30
0
11
-11.852847759083083
21
17.400000000000006
31
0
0
LINE
5
111
100
AcDbEntity
8
0
100
AcDbLine
10
-11.852847759083083
20
17.400000000000006
30
0
11
-11.852847759083037
21
32.399999999999991
31
0
0
ARC
5
112
100
AcDbEntity
8
0
100
AcDbCircle
10
0
20
0
30
0
40
34.499999999999986
210
0
220
0
230
1
100
AcDbArc
50
110.09396666627786
51
245.14711139839366
0
LINE
5
113
100
AcDbEntity
8
0
100
AcDbLine
10
-14.500000000000039
20
-31.304951684997043
30
0
11
-14.5
21
-14.304951684997055
31
0
0
LINE
5
114
100
AcDbEntity
8
0
100
AcDbLine
10
-14.5
20
-14.304951684997055
30
0
11
14.500000000000011
21
-14.304951684997057
31
0
0
LWPOLYLINE
5
115
100
AcDbEntity
8
0
100
AcDbPolyline
90
4
70
1
43
0.0
10
-2.2499999999999964
20
13.900000000000006
10
-31.25
20
13.900000000000006
10
-31.249999999999996
20
-13.899999999999997
10
-2.2499999999999973
20
-13.899999999999997
0
CIRCLE
5
116
100
AcDbEntity
8
0
100
AcDbCircle
10
21.920310216782973
20
-21.920310216782966
30
0
40
1.0000000000000009
210
0
220
0
230
1
0
CIRCLE
5
117
100
AcDbEntity
8
0
100
AcDbCircle
10
-21.92031021678298
20
-21.92031021678298
30
0
40
1.0000000000000009
210
0
220
0
230
1
0
CIRCLE
5
118
100
AcDbEntity
8
0
100
AcDbCircle
10
29.75
20
-9.6536312426972334e-15
30
0
40
0.82500000000000018
210
0
220
0
230
1
0
CIRCLE
5
119
100
AcDbEntity
8
0
100
AcDbCircle
10
21.92031021678298
20
21.92031021678298
30
0
40
1.0000000000000009
210
0
220
0
230
1
0
CIRCLE
5
120
100
AcDbEntity
8
0
100
AcDbCircle
10
-21.920310216783001
20
21.920310216782994
30
0
40
1.0000000000000009
210
0
220
0
230
1
0
LWPOLYLINE
5
121
100
AcDbEntity
8
0
100
AcDbPolyline
90
4
70
1
43
0.0
10
28.900000000000009
20
-13.004951684997032
10
15.700000000000012
20
-13.004951684997037
10
15.700000000000006
20
-15.254951684997053
10
28.900000000000013
20
-15.254951684997051
0
LWPOLYLINE
5
122
100
AcDbEntity
8
0
100
AcDbPolyline
90
12
70
1
43
0.0
10
22.999999999999993
20
5.0000000000000018
10
25.699999999999996
20
5
10
25.699999999999996
20
7.5
10
22.999999999999993
20
7.5000000000000018
10
22.999999999999993
20
9.8000000000000007
10
20.75
20
9.8000000000000007
10
20.75
20
-9.8000000000000007
10
23
20
-9.8000000000000007
10
23
20
-7.5000000000000018
10
25.699999999999996
20
-7.5000000000000018
10
25.699999999999996
20
-5.0000000000000018
10
23
20
-5.0000000000000018
0
CIRCLE
5
123
100
AcDbEntity
8
0
100
AcDbCircle
10
-7.7028477590830686
20
21.150000000000006
30
0
40
1.7500000000000013
210
0
220
-0
230
1
0
CIRCLE
5
124
100
AcDbEntity
8
0
100
AcDbCircle
10
-7.7028477590830775
20
28.650000000000016
30
0
40
1.7499999999999987
210
0
220
-0
230
1
0
LWPOLYLINE
5
125
100
AcDbEntity
8
0
100
AcDbPolyline
90
2
70
1
43
0.0
10
-14.500000000000037
20
-31.304951684997043
10
14.500000000000025
20
-31.304951684997047
42
-0.22034815965537594
0
ENDSEC
0
SECTION
2
OBJECTS
0
DICTIONARY
5
C
100
AcDbDictionary
3
ACAD_GROUP
350
D
3
ACAD_MLINESTYLE
350
17
0
DICTIONARY
5
D
100
AcDbDictionary
0
DICTIONARY
5
1A
330
C
100
AcDbDictionary
0
DICTIONARY
5
17
100
AcDbDictionary
0
ENDSEC
0
EOF
